<svg width="50" height="37" viewBox="0 0 50 37" fill="none" xmlns="http://www.w3.org/2000/svg">
<path d="M22.4766 7.76562C22.3047 7.79687 22.1562 7.84375 22.0312 7.90625C21.9219 7.95312 21.8203 8.00781 21.7266 8.07031C21.6484 8.13281 21.6094 8.20312 21.6094 8.28125C21.6094 8.34375 21.4922 8.42969 21.2578 8.53906C21.0234 8.64844 20.7578 8.76562 20.4609 8.89062C20.1641 9.01562 19.8672 9.14062 19.5703 9.26562C19.2891 9.375 19.0938 9.45312 18.9844 9.5C18.7656 9.625 18.5469 9.71875 18.3281 9.78125C18.1094 9.84375 17.9141 9.92188 17.7422 10.0156C17.4453 10.1875 17.2188 10.3516 17.0625 10.5078C16.9062 10.6484 16.75 10.7188 16.5938 10.7188C16.0469 10.7188 15.5625 10.6875 15.1406 10.625C14.7188 10.5625 14.3281 10.5312 13.9688 10.5312C13.5938 10.5312 13.3125 10.6953 13.125 11.0234C12.9531 11.3516 12.8203 11.7578 12.7266 12.2422C12.6484 12.7266 12.5859 13.2422 12.5391 13.7891C12.5078 14.3359 12.4375 14.8281 12.3281 15.2656C12.2344 15.5938 12.1562 16.0078 12.0938 16.5078C12.0469 16.9922 11.9922 17.5 11.9297 18.0312C11.8828 18.5625 11.8359 19.0938 11.7891 19.625C11.7422 20.1562 11.6875 20.6328 11.625 21.0547C11.5625 21.4141 11.4844 21.7188 11.3906 21.9688C11.2969 22.2031 11.25 22.4766 11.25 22.7891C11.25 22.9453 11.25 23.1016 11.25 23.2578C11.2656 23.3984 11.2734 23.5469 11.2734 23.7031C11.2734 24.2188 11.2266 24.75 11.1328 25.2969C11.0391 25.8281 10.9688 26.3359 10.9219 26.8203C10.8594 27.3672 10.8281 27.875 10.8281 28.3438C10.8281 28.8125 10.8047 29.2344 10.7578 29.6094C10.7266 29.7344 10.6641 29.8828 10.5703 30.0547C10.4922 30.2266 10.4297 30.4297 10.3828 30.6641C10.3828 30.6797 10.375 30.8281 10.3594 31.1094C10.3438 31.3906 10.3203 31.7031 10.2891 32.0469C10.2734 32.3906 10.2578 32.7109 10.2422 33.0078C10.2266 33.2891 10.2188 33.4453 10.2188 33.4766C10.3281 33.6016 10.4844 33.6641 10.6875 33.6641C11 33.6641 11.3438 33.6094 11.7188 33.5C12.0938 33.3906 12.5078 33.3359 12.9609 33.3359C13.2422 33.3359 13.4375 33.4375 13.5469 33.6406C13.5156 33.8594 13.4375 34.0078 13.3125 34.0859C13.1875 34.1641 13.0312 34.2188 12.8438 34.25C12.6562 34.2656 12.4531 34.2734 12.2344 34.2734C12.0156 34.2734 11.8125 34.2969 11.625 34.3438C11.4688 34.375 11.2969 34.4297 11.1094 34.5078C10.9375 34.5703 10.7578 34.6328 10.5703 34.6953C10.3047 34.7734 10.0312 34.8203 9.75 34.8359C9.48438 34.8359 9.28906 34.9062 9.16406 35.0469C9.03906 35.1875 8.89062 35.3438 8.71875 35.5156C8.54688 35.6875 8.30469 35.7734 7.99219 35.7734C7.72656 35.7734 7.44531 35.7422 7.14844 35.6797C6.86719 35.6172 6.54688 35.5859 6.1875 35.5859C5.85938 35.5859 5.54688 35.6172 5.25 35.6797C4.95312 35.7422 4.66406 35.8047 4.38281 35.8672C4.11719 35.9453 3.86719 36.0078 3.63281 36.0547C3.41406 36.1172 3.21875 36.1484 3.04688 36.1484C2.85938 36.1484 2.70312 36.0938 2.57812 35.9844C2.45312 35.8906 2.39062 35.7578 2.39062 35.5859C2.39062 35.5078 2.42188 35.4062 2.48438 35.2812C2.5625 35.1562 2.66406 35.0391 2.78906 34.9297C2.91406 34.8047 3.05469 34.7031 3.21094 34.625C3.38281 34.5469 3.57031 34.5078 3.77344 34.5078C3.85156 34.5078 3.97656 34.5312 4.14844 34.5781C4.32031 34.6094 4.51562 34.625 4.73438 34.625C4.92188 34.625 5.08594 34.6172 5.22656 34.6016C5.38281 34.5859 5.52344 34.5391 5.64844 34.4609C5.77344 34.3828 5.89062 34.2656 6 34.1094C6.125 33.9531 6.25 33.7422 6.375 33.4766C6.45312 33.3047 6.50781 33.125 6.53906 32.9375C6.58594 32.75 6.60938 32.5391 6.60938 32.3047C6.625 32.0703 6.64062 31.8047 6.65625 31.5078C6.67188 31.2109 6.69531 30.875 6.72656 30.5C6.72656 30.3594 6.78906 30.1484 6.91406 29.8672C7.03906 29.5859 7.10156 29.2656 7.10156 28.9062C7.10156 28.7344 7.09375 28.5703 7.07812 28.4141C7.0625 28.2578 7.05469 28.1172 7.05469 27.9922C7.05469 27.7266 7.09375 27.4688 7.17188 27.2188C7.25 26.9688 7.33594 26.6641 7.42969 26.3047V26.1875C7.42969 26.1406 7.42188 26.0938 7.40625 26.0469C7.40625 25.9844 7.40625 25.9297 7.40625 25.8828C7.54688 25.7422 7.64844 25.4922 7.71094 25.1328C7.77344 24.7734 7.82031 24.3672 7.85156 23.9141C7.89844 23.4453 7.9375 22.9609 7.96875 22.4609C8 21.9453 8.05469 21.4766 8.13281 21.0547C8.13281 21.0391 8.16406 20.875 8.22656 20.5625C8.30469 20.2344 8.39062 19.8594 8.48438 19.4375C8.57812 19.0156 8.65625 18.5938 8.71875 18.1719C8.79688 17.7344 8.83594 17.3984 8.83594 17.1641C8.83594 17.0234 8.82812 16.8828 8.8125 16.7422C8.8125 16.6016 8.8125 16.4688 8.8125 16.3438C8.8125 16.0781 8.84375 15.7031 8.90625 15.2188C8.98438 14.7344 9.0625 14.2266 9.14062 13.6953C9.21875 13.1484 9.28906 12.625 9.35156 12.125C9.42969 11.625 9.46875 11.2266 9.46875 10.9297C9.46875 10.7578 9.42969 10.6406 9.35156 10.5781C9.27344 10.5 9.05469 10.4609 8.69531 10.4609C7.94531 10.4609 7.21094 10.5078 6.49219 10.6016C5.77344 10.6953 5.11719 10.8125 4.52344 10.9531C3.94531 11.0781 3.46094 11.2031 3.07031 11.3281C2.67969 11.4531 2.4375 11.5469 2.34375 11.6094C2.28125 11.6562 2.1875 11.7656 2.0625 11.9375C1.9375 12.0938 1.79688 12.2656 1.64062 12.4531C1.48438 12.6406 1.32031 12.8125 1.14844 12.9688C0.976562 13.1094 0.804688 13.1797 0.632812 13.1797C0.523438 13.1797 0.40625 13.1406 0.28125 13.0625C0.171875 12.9688 0.117188 12.8672 0.117188 12.7578C0.117188 12.6641 0.195312 12.5156 0.351562 12.3125C0.507812 12.1094 0.695312 11.8906 0.914062 11.6562C1.13281 11.4219 1.35938 11.1953 1.59375 10.9766C1.82812 10.7422 2.02344 10.5469 2.17969 10.3906C2.35156 10.2344 2.55469 10.0312 2.78906 9.78125C3.03906 9.53125 3.28125 9.28906 3.51562 9.05469C3.76562 8.82031 4.00781 8.61719 4.24219 8.44531C4.47656 8.25781 4.66406 8.14062 4.80469 8.09375C4.94531 8.0625 5.14844 8.03125 5.41406 8C5.67969 7.95312 5.85938 7.92969 5.95312 7.92969C6.20312 7.92969 6.47656 7.96094 6.77344 8.02344C7.08594 8.07031 7.35938 8.09375 7.59375 8.09375C7.84375 8.09375 8.08594 8.07031 8.32031 8.02344C8.55469 7.96094 8.78125 7.92969 9 7.92969C9.23438 7.92969 9.48438 7.96094 9.75 8.02344C10.0156 8.08594 10.2344 8.11719 10.4062 8.11719C10.7031 8.11719 10.9688 8.01562 11.2031 7.8125C11.4531 7.60937 11.6797 7.38281 11.8828 7.13281C12.1016 6.88281 12.2969 6.65625 12.4688 6.45312C12.6406 6.25 12.7969 6.14844 12.9375 6.14844C13.1562 6.14844 13.3047 6.19531 13.3828 6.28906C13.4609 6.38281 13.5 6.47656 13.5 6.57031C13.5 6.67969 13.4688 6.79688 13.4062 6.92188C13.3594 7.03125 13.3047 7.14062 13.2422 7.25C13.1797 7.35938 13.1172 7.46875 13.0547 7.57812C13.0078 7.67188 12.9844 7.75781 12.9844 7.83594C12.9844 7.92969 13.0312 8.01562 13.125 8.09375C13.2344 8.15625 13.3672 8.21094 13.5234 8.25781C13.6953 8.28906 13.8672 8.3125 14.0391 8.32812C14.2266 8.34375 14.4062 8.35156 14.5781 8.35156C14.8438 8.35156 15.1016 8.34375 15.3516 8.32812C15.6016 8.29688 15.8281 8.28125 16.0312 8.28125C16.1094 8.28125 16.1953 8.3125 16.2891 8.375C16.3984 8.42188 16.4688 8.44531 16.5 8.44531C16.5625 8.44531 16.6719 8.42188 16.8281 8.375C16.9844 8.32812 17.1641 8.30469 17.3672 8.30469H18.0234C18.4453 8.30469 18.8828 8.21875 19.3359 8.04688C19.7891 7.85938 20.25 7.64063 20.7188 7.39062C20.8594 7.34375 20.9844 7.27344 21.0938 7.17969C21.2031 7.08594 21.3125 7 21.4219 6.92188C21.5312 6.82812 21.6328 6.75 21.7266 6.6875C21.8359 6.625 21.9531 6.59375 22.0781 6.59375C22.4062 6.59375 22.5703 6.74219 22.5703 7.03906C22.5703 7.11719 22.5469 7.1875 22.5 7.25C22.4688 7.3125 22.4531 7.38281 22.4531 7.46094C22.4531 7.49219 22.4531 7.53906 22.4531 7.60156C22.4688 7.64844 22.4766 7.6875 22.4766 7.71875V7.76562ZM30.8203 18.4062C30.7891 19 30.7031 19.5391 30.5625 20.0234C30.4375 20.5078 30.2734 20.9531 30.0703 21.3594C29.8828 21.7656 29.6719 22.1406 29.4375 22.4844C29.2031 22.8281 28.9609 23.1641 28.7109 23.4922C28.5547 23.6953 28.4297 23.875 28.3359 24.0312C28.2422 24.1719 28.1484 24.2969 28.0547 24.4062C27.9609 24.5156 27.8594 24.6094 27.75 24.6875C27.6406 24.7656 27.4922 24.8281 27.3047 24.875C27.1797 24.9062 27.0312 24.9453 26.8594 24.9922C26.7031 25.0234 26.5625 25.1016 26.4375 25.2266C26.4062 25.2578 26.375 25.3203 26.3438 25.4141C26.3125 25.4922 26.2812 25.5469 26.25 25.5781C26.125 25.6719 25.9766 25.7344 25.8047 25.7656C25.6484 25.7812 25.5078 25.8359 25.3828 25.9297C25.2578 26.0391 25.1719 26.1328 25.125 26.2109C25.0781 26.2891 24.9922 26.3672 24.8672 26.4453C24.7422 26.5234 24.5938 26.5859 24.4219 26.6328C24.2656 26.6641 24.1172 26.7188 23.9766 26.7969C23.8672 26.875 23.7812 26.9688 23.7188 27.0781C23.6719 27.1719 23.5859 27.2578 23.4609 27.3359C23.2109 27.5078 23 27.6406 22.8281 27.7344C22.6562 27.8125 22.5156 27.9297 22.4062 28.0859C22.3125 28.2422 22.2422 28.4688 22.1953 28.7656C22.1484 29.0625 22.125 29.5156 22.125 30.125C22.125 30.4844 22.1328 30.8281 22.1484 31.1562C22.1797 31.4844 22.2109 31.7266 22.2422 31.8828C22.2578 31.9297 22.3047 32.0391 22.3828 32.2109C22.4766 32.3672 22.5859 32.5391 22.7109 32.7266C22.8516 32.9141 23.0078 33.0859 23.1797 33.2422C23.3516 33.3828 23.5312 33.4531 23.7188 33.4531C24 33.4531 24.25 33.3516 24.4688 33.1484C24.6875 32.9297 24.9297 32.7422 25.1953 32.5859C25.3984 32.4609 25.6641 32.2969 25.9922 32.0938C26.3203 31.875 26.5859 31.6328 26.7891 31.3672C26.8516 31.2734 26.9297 31.1484 27.0234 30.9922C27.1172 30.8203 27.2188 30.6562 27.3281 30.5C27.4531 30.3281 27.5859 30.1875 27.7266 30.0781C27.8828 29.9531 28.0547 29.8906 28.2422 29.8906C28.3203 29.8906 28.4219 29.9141 28.5469 29.9609C28.5312 30.2266 28.4453 30.4688 28.2891 30.6875C28.1484 30.9062 27.9844 31.1094 27.7969 31.2969C27.625 31.4688 27.4688 31.625 27.3281 31.7656C27.1875 31.9062 27.1172 32.0234 27.1172 32.1172C27.1172 32.1484 27.1172 32.1953 27.1172 32.2578C27.1328 32.3047 27.1406 32.3438 27.1406 32.375C27.1406 32.4531 27.0469 32.5156 26.8594 32.5625C26.6875 32.5938 26.5469 32.6562 26.4375 32.75C26.3594 32.8281 26.2969 32.9219 26.25 33.0312C26.2188 33.125 26.1641 33.2031 26.0859 33.2656C25.9141 33.4062 25.7344 33.5312 25.5469 33.6406C25.3594 33.75 25.1875 33.8672 25.0312 33.9922C24.8594 34.1484 24.6797 34.3281 24.4922 34.5312C24.3203 34.7344 24.1484 34.9219 23.9766 35.0938C23.8047 35.2812 23.6328 35.4375 23.4609 35.5625C23.3047 35.6875 23.1562 35.75 23.0156 35.75C22.9375 35.75 22.8516 35.7344 22.7578 35.7031C22.6797 35.6875 22.6016 35.6797 22.5234 35.6797C22.4453 35.6797 22.3828 35.7109 22.3359 35.7734C22.2891 35.8359 22.2266 35.8672 22.1484 35.8672C22.0078 35.8672 21.8438 35.7969 21.6562 35.6562C21.4688 35.5312 21.3125 35.4375 21.1875 35.375C20.9688 35.2969 20.7109 35.2422 20.4141 35.2109C20.1172 35.1953 19.9062 35.1406 19.7812 35.0469C19.6719 34.9531 19.5859 34.7812 19.5234 34.5312C19.4766 34.2812 19.3906 34.0391 19.2656 33.8047C19.1406 33.5859 19 33.4062 18.8438 33.2656C18.6875 33.125 18.5938 33.0156 18.5625 32.9375C18.5312 32.8438 18.5078 32.7188 18.4922 32.5625C18.4922 32.3906 18.4922 32.2188 18.4922 32.0469C18.4922 31.8594 18.4844 31.6797 18.4688 31.5078C18.4531 31.3203 18.4219 31.1562 18.375 31.0156C18.3594 30.9688 18.3281 30.9297 18.2812 30.8984C18.2344 30.8516 18.2109 30.7656 18.2109 30.6406C18.2109 30.6562 18.2344 30.625 18.2812 30.5469C18.3438 30.4531 18.375 30.375 18.375 30.3125C18.4531 29.0781 18.5625 27.9062 18.7031 26.7969C18.8594 25.6719 19.0547 24.6484 19.2891 23.7266C19.5234 22.7891 19.8047 21.9766 20.1328 21.2891C20.4766 20.5859 20.8828 20.0312 21.3516 19.625C21.4297 19.5625 21.5156 19.5391 21.6094 19.5547C21.7188 19.5547 21.8125 19.5234 21.8906 19.4609C21.9219 19.4297 21.9453 19.375 21.9609 19.2969C21.9922 19.2031 22.0234 19.1406 22.0547 19.1094C22.1328 19.0469 22.2188 19.0156 22.3125 19.0156C22.4219 19.0156 22.5078 18.9844 22.5703 18.9219C22.6172 18.8906 22.6797 18.8281 22.7578 18.7344C22.8359 18.6406 22.9141 18.5391 22.9922 18.4297C23.0703 18.3203 23.1484 18.2188 23.2266 18.125C23.3047 18.0156 23.3828 17.9375 23.4609 17.8906C23.6484 17.7656 23.875 17.6797 24.1406 17.6328C24.4062 17.5859 24.6484 17.4922 24.8672 17.3516C24.9297 17.3203 25 17.2578 25.0781 17.1641C25.1562 17.0703 25.2344 16.9766 25.3125 16.8828C25.4062 16.7734 25.4922 16.6797 25.5703 16.6016C25.6484 16.5234 25.7266 16.4844 25.8047 16.4844C25.8359 16.4844 25.875 16.4922 25.9219 16.5078C25.9688 16.5078 26.0078 16.5078 26.0391 16.5078C26.0703 16.5078 26.1875 16.4141 26.3906 16.2266C26.6094 16.0391 26.8047 15.8906 26.9766 15.7812C27.0234 15.75 27.0469 15.6953 27.0469 15.6172C27.0625 15.5234 27.0938 15.4609 27.1406 15.4297C27.2188 15.3672 27.3438 15.3203 27.5156 15.2891C27.6875 15.2422 27.8516 15.1719 28.0078 15.0781C28.1328 15 28.2266 14.9219 28.2891 14.8438C28.3516 14.7656 28.4922 14.7266 28.7109 14.7266C29.2734 14.7734 29.7031 14.875 30 15.0312C30.2969 15.1875 30.5 15.4141 30.6094 15.7109C30.7344 15.9922 30.7969 16.3594 30.7969 16.8125C30.8125 17.25 30.8203 17.7812 30.8203 18.4062ZM27.4922 18.4062C27.4766 18.375 27.4141 18.3203 27.3047 18.2422C27.2109 18.1484 27.1562 18.0859 27.1406 18.0547C27.0938 17.9766 27.0703 17.8984 27.0703 17.8203C27.0703 17.7266 27.0625 17.6406 27.0469 17.5625C27.0312 17.4844 27 17.4219 26.9531 17.375C26.9219 17.3281 26.8516 17.3047 26.7422 17.3047C26.6484 17.3047 26.5078 17.3594 26.3203 17.4688C26.1484 17.5625 25.9609 17.6797 25.7578 17.8203C25.5703 17.9609 25.3906 18.1016 25.2188 18.2422C25.0469 18.3828 24.9297 18.4922 24.8672 18.5703C24.7891 18.6641 24.6797 18.8359 24.5391 19.0859C24.4141 19.3203 24.2812 19.5625 24.1406 19.8125C24.0156 20.0625 23.8984 20.2812 23.7891 20.4688C23.6797 20.6562 23.6172 20.75 23.6016 20.75C23.6016 20.7812 23.6016 20.8203 23.6016 20.8672C23.6172 20.9141 23.625 20.9531 23.625 20.9844C23.625 21.0781 23.5625 21.1641 23.4375 21.2422C23.3125 21.3047 23.25 21.4375 23.25 21.6406C23.25 21.7188 23.2578 21.8125 23.2734 21.9219C23.2891 22.0156 23.2969 22.1016 23.2969 22.1797C23.2969 22.3047 23.2422 22.4297 23.1328 22.5547C23.0391 22.6797 22.9766 22.8125 22.9453 22.9531C22.8047 23.4531 22.6641 23.9922 22.5234 24.5703C22.3828 25.1328 22.3125 25.6875 22.3125 26.2344C22.3125 26.4062 22.3281 26.5547 22.3594 26.6797C22.4062 26.7891 22.5312 26.8438 22.7344 26.8438C22.875 26.8438 22.9766 26.8203 23.0391 26.7734C23.1172 26.7109 23.1797 26.6406 23.2266 26.5625C23.2734 26.4688 23.3125 26.3828 23.3438 26.3047C23.375 26.2266 23.4141 26.1641 23.4609 26.1172C23.6641 25.9297 23.8984 25.7344 24.1641 25.5312C24.4297 25.3281 24.6953 25.1172 24.9609 24.8984C25.2422 24.6641 25.5078 24.4297 25.7578 24.1953C26.0234 23.9609 26.25 23.7266 26.4375 23.4922C26.4844 23.4141 26.5312 23.2891 26.5781 23.1172C26.625 22.9297 26.6953 22.7578 26.7891 22.6016C27.0234 22.1953 27.2031 21.6719 27.3281 21.0312C27.4688 20.3906 27.5391 19.6875 27.5391 18.9219C27.5391 18.8438 27.5312 18.7578 27.5156 18.6641C27.5156 18.5703 27.5078 18.4844 27.4922 18.4062ZM49.4062 29C49.4062 29.0938 49.375 29.1875 49.3125 29.2812C49.2656 29.375 49.2031 29.4609 49.125 29.5391C49.0469 29.6172 48.9688 29.7031 48.8906 29.7969C48.8125 29.875 48.75 29.9609 48.7031 30.0547C48.6406 30.1641 48.6094 30.2812 48.6094 30.4062C48.625 30.5312 48.5938 30.6484 48.5156 30.7578C48.4219 30.8984 48.1641 31.1406 47.7422 31.4844C47.3359 31.8125 46.8359 32.3281 46.2422 33.0312C46.1641 33.1562 46.1016 33.3047 46.0547 33.4766C46.0234 33.6484 45.9688 33.7969 45.8906 33.9219C45.8125 34.0469 45.6953 34.1953 45.5391 34.3672C45.3828 34.5234 45.2109 34.6719 45.0234 34.8125C44.8516 34.9531 44.6641 35.0703 44.4609 35.1641C44.2734 35.2734 44.1016 35.3281 43.9453 35.3281C43.7109 35.3281 43.4922 35.2734 43.2891 35.1641C43.0859 35.0703 42.8906 34.9453 42.7031 34.7891C42.5156 34.6172 42.3281 34.4219 42.1406 34.2031C41.9531 33.9844 41.75 33.7656 41.5312 33.5469C41.4219 33.4375 41.3203 33.2891 41.2266 33.1016C41.1484 32.8984 41.0625 32.6953 40.9688 32.4922C40.8906 32.2734 40.7969 32.0625 40.6875 31.8594C40.5938 31.6406 40.4688 31.4531 40.3125 31.2969C40.2344 31.2031 40.1172 31.125 39.9609 31.0625C39.8047 30.9844 39.6875 30.8828 39.6094 30.7578C39.5312 30.6484 39.5 30.5391 39.5156 30.4297C39.5312 30.3047 39.5 30.1797 39.4219 30.0547C39.3594 29.9453 39.2266 29.7188 39.0234 29.375C38.8203 29.0156 38.6016 28.6562 38.3672 28.2969C38.1328 27.9375 37.9141 27.6172 37.7109 27.3359C37.5078 27.0391 37.3828 26.8906 37.3359 26.8906C37.1172 26.8906 36.9297 27 36.7734 27.2188C36.6328 27.4219 36.5156 27.6719 36.4219 27.9688C36.3438 28.25 36.2812 28.5547 36.2344 28.8828C36.2031 29.1953 36.1875 29.4531 36.1875 29.6562C36.1875 29.9688 36.1797 30.25 36.1641 30.5C36.1484 30.75 36.1172 31 36.0703 31.25C36.0234 31.4844 35.9609 31.7344 35.8828 32C35.8047 32.25 35.7031 32.5391 35.5781 32.8672C35.4844 33.1172 35.3906 33.3906 35.2969 33.6875C35.2031 33.9688 35.125 34.1562 35.0625 34.25C35.0156 34.3125 34.9297 34.3672 34.8047 34.4141C34.6797 34.4453 34.5312 34.5078 34.3594 34.6016C34.2812 34.6484 34.2109 34.7188 34.1484 34.8125C34.0859 34.8906 34.0156 34.9609 33.9375 35.0234C33.875 35.1016 33.7891 35.1641 33.6797 35.2109C33.5703 35.2734 33.4375 35.3047 33.2812 35.3047C32.7656 35.3047 32.5078 35.1484 32.5078 34.8359C32.5078 34.6953 32.5391 34.5469 32.6016 34.3906C32.6641 34.2188 32.7344 34.0547 32.8125 33.8984C32.9062 33.7266 32.9844 33.5703 33.0469 33.4297C33.1094 33.2734 33.1406 33.1328 33.1406 33.0078C33.1406 32.8516 33.1172 32.7031 33.0703 32.5625C33.0234 32.4062 32.9844 32.2188 32.9531 32H32.9766C33.0078 32 33.0391 31.9844 33.0703 31.9531C33.1016 31.9062 33.1172 31.8594 33.1172 31.8125C33.1172 31.7969 33.1016 31.7656 33.0703 31.7188C33.0391 31.6562 33 31.5938 32.9531 31.5312C32.9062 31.4688 32.8672 31.4141 32.8359 31.3672C32.8047 31.3203 32.7891 31.2969 32.7891 31.2969C32.7891 31.2031 32.8203 31.0859 32.8828 30.9453C32.9609 30.8047 33.0469 30.6406 33.1406 30.4531C33.2344 30.2656 33.3125 30.0625 33.375 29.8438C33.4531 29.625 33.4922 29.3906 33.4922 29.1406C33.4922 28.9844 33.4609 28.8281 33.3984 28.6719C33.3359 28.5 33.3047 28.3203 33.3047 28.1328C33.3047 28.0234 33.3203 27.875 33.3516 27.6875C33.3984 27.5 33.4531 27.2969 33.5156 27.0781C33.5938 26.8438 33.6719 26.625 33.75 26.4219C33.8281 26.2031 33.9141 26.0156 34.0078 25.8594V25.7891C34.0078 25.6641 33.9766 25.5703 33.9141 25.5078C33.8672 25.4297 33.8438 25.3125 33.8438 25.1562C33.8438 25.0781 33.8672 24.9844 33.9141 24.875C33.9609 24.75 33.9922 24.6094 34.0078 24.4531C34.0234 24.0781 34.0469 23.7344 34.0781 23.4219C34.125 23.0938 34.1719 22.7812 34.2188 22.4844C34.2656 22.1875 34.3125 21.8906 34.3594 21.5938C34.4219 21.2812 34.4766 20.9531 34.5234 20.6094C34.5547 20.4375 34.625 20.25 34.7344 20.0469C34.8438 19.8281 34.8984 19.5938 34.8984 19.3438C34.8984 19.125 34.8672 18.9297 34.8047 18.7578C34.7422 18.5703 34.7109 18.375 34.7109 18.1719C34.8359 17.9062 34.9062 17.6719 34.9219 17.4688C34.9531 17.25 35 16.9531 35.0625 16.5781C35.1875 15.7344 35.3359 14.8516 35.5078 13.9297C35.6797 13.0078 35.7656 12.1797 35.7656 11.4453C35.7656 11.2422 35.7344 11.0859 35.6719 10.9766C35.6094 10.8672 35.5781 10.75 35.5781 10.625C35.5938 10.4688 35.6406 10.2188 35.7188 9.875C35.8125 9.53125 35.9062 9.13281 36 8.67969C36.0938 8.21094 36.1797 7.70312 36.2578 7.15625C36.3359 6.59375 36.375 6.01562 36.375 5.42188C36.375 5.20313 36.3594 5.05469 36.3281 4.97656C36.2969 4.88281 36.2422 4.83594 36.1641 4.83594C36.0391 4.83594 35.875 4.89062 35.6719 5C35.4688 5.10938 35.2656 5.23438 35.0625 5.375C35.0312 5.40625 35 5.46875 34.9688 5.5625C34.9531 5.65625 34.9297 5.71094 34.8984 5.72656C34.7734 5.77344 34.6484 5.8125 34.5234 5.84375C34.4141 5.875 34.2969 5.95313 34.1719 6.07812C34.1094 6.15625 34.0859 6.21875 34.1016 6.26562C34.1172 6.3125 34.0859 6.36719 34.0078 6.42969C33.9297 6.49219 33.8594 6.53906 33.7969 6.57031C33.7344 6.58594 33.6875 6.65625 33.6562 6.78125C33.6406 6.85937 33.6094 6.95312 33.5625 7.0625C33.5312 7.17188 33.4766 7.28125 33.3984 7.39062C33.3359 7.48438 33.2578 7.57031 33.1641 7.64844C33.0859 7.72656 32.9922 7.76562 32.8828 7.76562C32.7734 7.76562 32.6719 7.73438 32.5781 7.67188C32.5 7.59375 32.4609 7.42969 32.4609 7.17969C32.4609 7.00781 32.4766 6.85937 32.5078 6.73438C32.5391 6.59375 32.5703 6.48437 32.6016 6.40625C32.6484 6.3125 32.7031 6.23438 32.7656 6.17188V6.19531H32.8125C32.8125 6.19531 32.875 6.13281 33 6.00781C33.125 5.88281 33.2812 5.72656 33.4688 5.53906C33.6562 5.35156 33.8594 5.14844 34.0781 4.92969C34.2969 4.71094 34.5078 4.50781 34.7109 4.32031C34.7734 4.25781 34.8594 4.23437 34.9688 4.25C35.0781 4.26563 35.1641 4.23437 35.2266 4.15625C35.6172 3.76562 35.8906 3.47656 36.0469 3.28906C36.2188 3.08594 36.3281 2.9375 36.375 2.84375C36.4375 2.73437 36.4844 2.64844 36.5156 2.58594C36.5625 2.50781 36.6562 2.39063 36.7969 2.23438C37.0156 2 37.2266 1.82031 37.4297 1.69531C37.6484 1.57031 37.9062 1.39844 38.2031 1.17969C38.3281 1.08594 38.4375 0.976562 38.5312 0.851562C38.625 0.710938 38.7656 0.640625 38.9531 0.640625C39.3594 0.640625 39.6016 0.6875 39.6797 0.78125C39.7578 0.875 39.7969 0.984375 39.7969 1.10938C39.7969 1.4375 39.7656 1.83594 39.7031 2.30469C39.6562 2.75781 39.6016 3.19531 39.5391 3.61719C39.4766 4.03906 39.4141 4.39844 39.3516 4.69531C39.3047 4.99219 39.2734 5.14062 39.2578 5.14062C39.2578 5.3125 39.2812 5.45312 39.3281 5.5625C39.3906 5.67188 39.4219 5.78125 39.4219 5.89062C39.3281 7.04687 39.1562 8.27344 38.9062 9.57031C38.6719 10.8672 38.4922 12.1562 38.3672 13.4375C38.2891 14.2188 38.2422 15.0234 38.2266 15.8516C38.2266 16.6797 38.1641 17.4531 38.0391 18.1719C38.0078 18.3594 37.9453 18.5391 37.8516 18.7109C37.7734 18.8672 37.7188 19.0312 37.6875 19.2031C37.6562 19.4844 37.6406 19.7734 37.6406 20.0703C37.6406 20.3516 37.625 20.6719 37.5938 21.0312C37.5625 21.3906 37.5 21.8047 37.4062 22.2734C37.3281 22.7422 37.1875 23.2969 36.9844 23.9375C36.9688 23.9844 36.9297 24.0781 36.8672 24.2188C36.8047 24.3594 36.7812 24.4375 36.7969 24.4531C36.8594 24.5469 36.9297 24.5938 37.0078 24.5938C37.2578 24.5938 37.5312 24.4766 37.8281 24.2422C38.125 23.9922 38.4219 23.6875 38.7188 23.3281C39.0156 22.9688 39.3125 22.5781 39.6094 22.1562C39.9062 21.7188 40.1953 21.3203 40.4766 20.9609C40.5703 20.8359 40.6484 20.6875 40.7109 20.5156C40.7891 20.3438 40.8828 20.1953 40.9922 20.0703C41.1484 19.8828 41.3516 19.6094 41.6016 19.25C41.8672 18.8906 42.125 18.5156 42.375 18.125C42.6406 17.7188 42.8828 17.3359 43.1016 16.9766C43.3203 16.6016 43.4688 16.3047 43.5469 16.0859C43.5938 15.9766 43.6641 15.8281 43.7578 15.6406C43.8672 15.4375 43.9766 15.2422 44.0859 15.0547C44.1953 14.8516 44.2891 14.6797 44.3672 14.5391C44.4609 14.3828 44.5078 14.2969 44.5078 14.2812C44.5234 14.0469 44.6562 13.9297 44.9062 13.9297C45 13.9297 45.125 13.9766 45.2812 14.0703C45.4531 14.1484 45.6172 14.2578 45.7734 14.3984C45.9297 14.5234 46.0625 14.6719 46.1719 14.8438C46.2969 15 46.3594 15.1484 46.3594 15.2891C46.3594 15.5078 46.2422 15.75 46.0078 16.0156C45.7734 16.2812 45.5391 16.5391 45.3047 16.7891C45.1641 16.9453 44.9375 17.2422 44.625 17.6797C44.3125 18.1016 43.9766 18.5781 43.6172 19.1094C43.2734 19.625 42.9297 20.1328 42.5859 20.6328C42.2422 21.1328 41.9531 21.5312 41.7188 21.8281C41.5312 22.0625 41.3594 22.2578 41.2031 22.4141C41.0625 22.5703 40.9453 22.7109 40.8516 22.8359C40.7578 22.9453 40.6797 23.0547 40.6172 23.1641C40.5703 23.2578 40.5469 23.3828 40.5469 23.5391C40.5469 23.6172 40.5625 23.75 40.5938 23.9375C40.625 24.125 40.6719 24.3438 40.7344 24.5938C40.7969 24.8281 40.8672 25.0781 40.9453 25.3438C41.0234 25.5938 41.1016 25.8281 41.1797 26.0469C41.2109 26.1094 41.2656 26.1953 41.3438 26.3047C41.4375 26.4141 41.5 26.5 41.5312 26.5625C41.7969 27.1562 42.0625 27.7812 42.3281 28.4375C42.5938 29.0938 42.8672 29.7031 43.1484 30.2656C43.4297 30.8125 43.7266 31.2734 44.0391 31.6484C44.3516 32.0078 44.6875 32.1875 45.0469 32.1875C45.2188 32.1875 45.3516 32.1484 45.4453 32.0703C45.5391 31.9922 45.6328 31.8984 45.7266 31.7891C45.8203 31.6641 45.9297 31.5312 46.0547 31.3906C46.1953 31.2344 46.3828 31.0781 46.6172 30.9219C46.6953 30.875 46.7734 30.8516 46.8516 30.8516C46.9453 30.8516 47.0312 30.8438 47.1094 30.8281C47.1875 30.8125 47.25 30.7734 47.2969 30.7109C47.3594 30.6484 47.3906 30.5312 47.3906 30.3594C47.3906 30.2188 47.4141 30.125 47.4609 30.0781C47.5078 30.0156 47.5625 29.9844 47.625 29.9844C47.7031 29.9688 47.7734 29.9609 47.8359 29.9609C47.9141 29.9609 47.9688 29.9375 48 29.8906C48.1094 29.7656 48.1797 29.625 48.2109 29.4688C48.2578 29.2969 48.3047 29.1406 48.3516 29C48.4141 28.8594 48.4922 28.7422 48.5859 28.6484C48.6797 28.5391 48.8359 28.4844 49.0547 28.4844C49.0859 28.6094 49.1484 28.6953 49.2422 28.7422C49.3359 28.7891 49.3906 28.875 49.4062 29Z" fill="#7698E2"/>
</svg>
